HIERARCHY
ROOT Hips
{
	OFFSET 0.00 0.00 0.00
	CHANNELS 6 Xposition Yposition Zposition Xrotation Yrotation Zrotation
	JOINT Spine
	{
		OFFSET 0.00000 1.72418 2.58627
		CHANNELS 3 Xrotation Yrotation Zrotation
		JOINT Spine1
		{
			OFFSET 0.00000 0.59880 3.39597
			CHANNELS 3 Xrotation Yrotation Zrotation
			JOINT Spine2
			{
				OFFSET 0.00000 0.30055 3.43524
				CHANNELS 3 Xrotation Yrotation Zrotation
				JOINT Spine3
				{
					OFFSET 0.00000 0.00000 3.44836
					CHANNELS 3 Xrotation Yrotation Zrotation
					JOINT Neck
					{
						OFFSET 0.00000 -1.29313 9.05195
						CHANNELS 3 Xrotation Yrotation Zrotation
						JOINT Head
						{
							OFFSET 0.00000 -0.82335 4.66946
							CHANNELS 3 Xrotation Yrotation Zrotation
							End Site
							{
								OFFSET 0.00000 0.00001 5.58203
							}
						}
					}
					JOINT RightShoulder
					{
						OFFSET -1.18828 -1.98046 6.41673
						CHANNELS 3 Xrotation Yrotation Zrotation
						JOINT RightArm
						{
							OFFSET -5.90180 0.00000 0.00000
							CHANNELS 3 Xrotation Yrotation Zrotation
							JOINT RightForeArm
							{
								OFFSET -11.45951 0.00000 0.00000
								CHANNELS 3 Xrotation Yrotation Zrotation
								JOINT RightHand
								{
									OFFSET -10.63451 0.00000 0.00000
									CHANNELS 3 Xrotation Yrotation Zrotation
									JOINT RightHandEnd
									{
										OFFSET -2.86944 0.00000 0.00000
										CHANNELS 3 Xrotation Yrotation Zrotation
										End Site
										{
											OFFSET -2.86944 0.00000 0.00000
										}
									}
									JOINT RightHandThumb1
									{
										OFFSET -1.14778 -1.91296 -0.76518
										CHANNELS 3 Yrotation Xrotation Zrotation
										End Site
										{
											OFFSET -2.77167 -0.74267 0.00000
										}
									}
								}
							}
						}
					}
					JOINT LeftShoulder
					{
						OFFSET 1.18828 -1.98046 6.41673
						CHANNELS 3 Xrotation Yrotation Zrotation
						JOINT LeftArm
						{
							OFFSET 5.90180 0.00000 0.00000
							CHANNELS 3 Xrotation Yrotation Zrotation
							JOINT LeftForeArm
							{
								OFFSET 11.45951 0.00000 0.00000
								CHANNELS 3 Xrotation Yrotation Zrotation
								JOINT LeftHand
								{
									OFFSET 10.63451 0.00000 0.00000
									CHANNELS 3 Xrotation Yrotation Zrotation
									JOINT LeftHandEnd
									{
										OFFSET 2.86944 0.00000 0.00000
										CHANNELS 3 Xrotation Yrotation Zrotation
										End Site
										{
											OFFSET 2.86944 0.00000 0.00000
										}
									}
									JOINT LeftHandThumb1
									{
										OFFSET 1.14778 -1.91296 -0.76518
										CHANNELS 3 Yrotation Xrotation Zrotation
										End Site
										{
											OFFSET 2.77167 -0.74267 0.00000
										}
									}
								}
							}
						}
					}
				}
			}
		}
	}
	JOINT RightUpLeg
	{
		OFFSET -3.52524 0.00000 -1.02984
		CHANNELS 3 Xrotation Yrotation Zrotation
		JOINT RightLeg
		{
			OFFSET 0.00001 0.00000 -17.80965
			CHANNELS 3 Xrotation Yrotation Zrotation
			JOINT RightFoot
			{
				OFFSET 0.00001 0.00000 -17.00908
				CHANNELS 3 Xrotation Yrotation Zrotation
				JOINT RightToeBase
				{
					OFFSET 0.00000 -5.55853 -2.02314
					CHANNELS 3 Xrotation Yrotation Zrotation
					End Site
					{
						OFFSET 0.00000 -2.85188 -0.00000
					}
				}
			}
		}
	}
	JOINT LeftUpLeg
	{
		OFFSET 3.52524 0.00000 -1.02984
		CHANNELS 3 Xrotation Yrotation Zrotation
		JOINT LeftLeg
		{
			OFFSET 0.00001 0.00000 -17.80965
			CHANNELS 3 Xrotation Yrotation Zrotation
			JOINT LeftFoot
			{
				OFFSET 0.00001 0.00000 -17.00908
				CHANNELS 3 Xrotation Yrotation Zrotation
				JOINT LeftToeBase
				{
					OFFSET 0.00000 -5.55853 -2.02314
					CHANNELS 3 Xrotation Yrotation Zrotation
					End Site
					{
						OFFSET 0.00000 -2.85188 -0.00000
					}
				}
			}
		}
	}
}
MOTION
Frames: 18
Frame Time:	0.0333333
 3.0273 -7.5634 36.0371 -0.9136 -0.1301 -172.7512 1.0152 3.4422 -0.9953 0.1545 1.1370 -0.2330 6.4083 -6.4900 -6.3851 1.8654 -2.2699 1.0119 1.3231 -5.1832 -3.5977 -1.3021 4.8193 5.3281 14.2358 -18.9336 -2.7867 27.1785 -5.6844 27.7635 0.0000 0.0000 28.8884 7.3801 16.0661 -2.8992 -0.0000 0.0000 0.0000 0.0000 0.0000 0.0000 20.0716 -2.8402 -19.4401 34.4440 11.0671 -56.4901 -0.0000 -0.0000 -57.4262 7.8331 -15.7324 -2.0529 -0.0000 -0.0000 0.0000 -0.0000 0.0000 -0.0000 -20.7020 -3.9116 -11.4303 38.5783 0.0000 0.0000 -22.2522 7.1641 -6.2056 -1.5781 0.0000 -0.0000 -17.1049 -2.2611 1.5580 69.4745 0.0000 0.0000 -10.7756 -5.2800 8.1962 -15.6165 0.0000 -0.0000
 3.0011 -6.4328 36.6799 -1.0794 1.0567 -174.0362 0.8229 3.0506 -0.5927 0.1374 1.0989 -0.1203 6.2389 -4.2645 -4.5055 1.9778 -1.7940 0.7997 2.1077 -3.1231 -2.6010 -0.8694 3.3661 3.6389 14.9346 -18.6826 1.0529 30.3373 -8.2601 31.0487 0.0000 0.0000 30.3441 6.9896 15.8234 -1.6791 0.0000 -0.0000 0.0000 -0.0000 -0.0000 0.0000 20.2257 0.3771 -17.4153 35.4867 9.4738 -52.1704 -0.0000 -0.0000 -52.2099 9.5824 -16.0576 -1.1255 0.0000 0.0000 -0.0000 0.0000 0.0000 0.0000 -15.7349 -3.4732 -10.6277 32.4020 0.0000 0.0000 -21.0137 7.0208 -4.6625 -1.7566 0.0000 -0.0000 -20.9923 -1.3303 2.5506 64.2158 0.0000 0.0000 -11.7632 -4.0022 10.0606 -13.7207 0.0000 -0.0000
 2.9262 -5.2955 37.1391 -1.2734 2.1158 -175.9139 0.6125 2.2496 -0.1357 0.1360 0.9494 -0.0046 5.9215 -1.9056 -2.3254 2.0949 -1.0603 0.5525 2.8498 -1.1104 -1.5461 -0.5915 1.9702 2.1199 15.6537 -17.5071 4.8106 33.0624 -10.8521 35.6257 0.0000 0.0000 31.7951 6.1576 15.6340 -1.0342 0.0000 0.0000 0.0000 0.0000 -0.0000 0.0000 19.2680 4.0017 -14.6659 36.9779 7.1670 -47.3505 -0.0000 -0.0000 -48.4572 9.9491 -15.5017 -0.9862 0.0000 -0.0000 0.0000 0.0000 -0.0000 0.0000 -11.2914 -2.8242 -10.0544 27.0111 0.0000 0.0000 -20.0283 6.8666 -2.4091 -1.7822 0.0000 -0.0000 -23.9198 -0.7356 4.2300 56.6753 0.0000 0.0000 -11.9105 -2.4731 11.1542 -12.6787 0.0000 -0.0000
 2.8428 -4.1580 37.3806 -1.4571 2.4960 -178.2416 0.4142 0.6997 0.3526 0.1494 0.6922 0.0830 5.5740 0.4350 -0.0388 2.2188 -0.1781 0.2547 3.4043 0.7511 -0.4385 -0.4522 0.6646 0.8836 16.2543 -15.2306 8.4691 35.4400 -13.0395 41.4440 0.0000 0.0000 33.5267 4.8708 15.5688 -0.8890 -0.0000 0.0000 -0.0000 0.0000 -0.0000 -0.0000 17.4671 7.4103 -11.3038 38.4349 4.8255 -41.9157 -0.0000 -0.0000 -46.3500 9.5760 -14.0880 -1.4199 0.0000 -0.0000 0.0000 0.0000 -0.0000 -0.0000 -7.5559 -2.6136 -9.5727 22.7693 0.0000 0.0000 -19.7683 6.4337 -0.0391 -1.8315 0.0000 -0.0000 -26.1018 -1.0780 6.0559 47.8812 0.0000 0.0000 -11.0951 -0.0422 10.5198 -12.6554 0.0000 -0.0000
 2.7913 -3.0078 37.3982 -1.5782 1.9423 179.2816 0.3236 -1.5115 0.8307 0.1824 0.3460 0.1303 5.2303 2.5000 2.1125 2.3618 0.7128 -0.0429 3.6939 2.3977 0.6312 -0.2933 -0.5501 0.0106 16.7588 -12.1588 12.0501 37.2282 -14.1514 47.8094 0.0000 0.0000 36.0379 3.0313 15.9761 -1.0477 0.0000 0.0000 -0.0000 -0.0000 0.0000 0.0000 15.7419 10.0914 -7.7068 38.9331 2.8310 -35.9520 -0.0000 -0.0000 -45.7470 9.4335 -12.2406 -2.1052 0.0000 0.0000 0.0000 0.0000 -0.0000 -0.0000 -4.4742 -3.2335 -8.7652 19.9662 0.0000 0.0000 -20.2720 5.6464 1.7967 -1.8715 0.0000 -0.0000 -27.6118 -2.4827 7.6150 38.6100 0.0000 0.0000 -10.2004 2.6903 8.4125 -12.0984 0.0000 -0.0000
 2.7747 -1.8363 37.2329 -1.7893 0.7730 176.9975 0.2718 -3.8648 1.2217 0.2209 0.0026 0.1561 4.8972 4.0759 3.9874 2.4806 1.5172 -0.2531 3.7582 3.7511 1.5564 -0.0771 -1.6092 -0.5762 17.2484 -8.8873 15.5609 37.8726 -14.0367 53.6123 -0.0000 0.0000 39.7584 0.4839 16.8905 -1.2880 0.0000 0.0000 0.0000 -0.0000 0.0000 0.0000 14.4791 11.9665 -4.2172 38.4087 1.1345 -29.9152 -0.0000 -0.0000 -45.9565 10.0758 -10.5356 -2.9213 0.0000 -0.0000 -0.0000 -0.0000 0.0000 0.0000 -2.2126 -4.3807 -7.4118 18.9084 0.0000 0.0000 -21.5187 4.8794 2.8031 -1.6924 0.0000 -0.0000 -28.7530 -4.4053 8.9018 29.4123 0.0000 0.0000 -9.0335 4.8169 5.3932 -11.3082 0.0000 -0.0000
 2.7682 -0.6189 36.9613 -1.9856 -0.2754 175.1986 0.2910 -5.6426 1.4650 0.2586 -0.2424 0.1743 4.6324 5.2156 5.5926 2.5311 2.1552 -0.3803 3.6868 4.7039 2.3005 0.0681 -2.4701 -1.1193 17.5470 -5.8892 18.8632 37.2634 -13.3372 58.1900 -0.0000 0.0000 44.7557 -2.1498 17.8003 -1.3305 -0.0000 0.0000 -0.0000 0.0000 0.0000 0.0000 13.4650 12.9713 -0.9472 37.5003 -0.3406 -24.4420 -0.0000 -0.0000 -46.1179 11.5816 -9.4402 -3.6105 -0.0000 -0.0000 -0.0000 -0.0000 0.0000 -0.0000 -0.5275 -5.2703 -5.8924 19.3775 0.0000 0.0000 -23.5506 4.2187 3.1454 -1.5515 0.0000 -0.0000 -29.5647 -5.9068 10.0557 20.9469 0.0000 0.0000 -7.1157 7.0193 2.2681 -11.3368 0.0000 -0.0000
 2.7673 0.6923 36.6348 -1.9453 -0.9054 174.1514 0.3559 -6.6067 1.6009 0.3063 -0.2995 0.2059 4.4888 6.0452 6.7937 2.5372 2.5672 -0.4646 3.6196 5.1205 2.8076 0.0611 -3.1717 -1.7424 17.5026 -3.2455 21.6597 35.7624 -12.8622 61.7588 -0.0000 0.0001 50.7269 -3.8814 18.3156 -1.0166 0.0000 0.0000 0.0000 0.0000 0.0000 0.0000 12.6878 12.8870 2.0561 36.5827 -1.4643 -19.9662 -0.0000 -0.0000 -45.8060 13.7926 -8.8339 -3.8364 -0.0000 -0.0000 -0.0000 -0.0000 0.0000 -0.0000 1.3016 -5.6005 -4.9463 20.4246 0.0000 0.0000 -26.0091 3.3584 3.2976 -1.7991 0.0000 -0.0000 -30.1293 -6.5949 11.1447 14.7953 0.0000 0.0000 -5.4892 9.9110 0.1396 -11.4400 0.0000 -0.0000
 2.7725 2.1189 36.2768 -1.6725 -1.1107 174.0060 0.3746 -6.7932 1.6965 0.3279 -0.2246 0.2486 4.4259 6.6841 7.5156 2.5277 2.8145 -0.5711 3.7700 4.9331 2.9217 -0.1057 -3.8674 -2.3806 17.1126 -0.9878 23.7221 33.8841 -13.1560 64.7296 -0.0000 0.0001 57.3013 -4.7903 18.5776 -0.3742 0.0000 0.0000 0.0000 0.0000 -0.0000 -0.0000 12.2173 11.8400 4.6634 35.7217 -2.2768 -16.2913 -0.0000 -0.0000 -45.1176 16.2163 -7.9053 -3.7136 0.0000 0.0000 0.0000 -0.0000 0.0000 -0.0000 3.7283 -5.4059 -5.1091 21.1773 0.0000 0.0000 -28.3510 2.2365 3.6971 -2.2696 0.0000 -0.0000 -30.8182 -6.5152 12.3939 12.9182 0.0000 0.0000 -5.4159 11.9961 -0.9311 -10.8550 0.0000 -0.0000
 2.7499 3.6333 35.8861 -1.4420 -0.7788 174.5086 0.2980 -6.2705 1.8037 0.2938 -0.2386 0.2899 4.2405 7.4048 8.0162 2.4509 3.0330 -0.7220 4.3013 4.2909 2.5580 -0.3550 -4.7679 -3.0754 16.3407 0.7666 25.0832 32.3127 -14.5155 67.2331 -0.0000 0.0001 64.2037 -5.9912 18.7190 0.5211 0.0000 -0.0000 -0.0000 0.0000 0.0000 0.0000 11.5994 10.3401 6.8531 35.1114 -3.1207 -12.9162 -0.0000 -0.0000 -44.2335 18.0932 -6.0388 -3.6544 -0.0000 -0.0000 0.0000 0.0000 0.0000 0.0000 6.4333 -4.6250 -6.2457 21.5702 0.0000 0.0000 -30.5463 1.0855 4.3628 -2.9065 0.0000 -0.0000 -31.9316 -5.6976 12.6171 15.5701 0.0000 0.0000 -5.7448 11.1874 -1.0142 -10.9767 0.0000 -0.0000
 2.6474 5.1907 35.4487 -1.5129 0.2638 175.1708 0.1063 -5.3248 1.9218 0.2365 -0.3530 0.3495 3.8221 8.5560 8.7465 2.2700 3.3119 -0.9121 5.0235 3.4719 1.8660 -0.5660 -5.9917 -4.1201 15.1059 1.9335 25.9245 31.5354 -16.7965 69.1998 -0.0000 0.0001 71.1608 -7.9076 18.6154 1.4965 0.0000 0.0000 -0.0000 0.0000 0.0000 0.0000 10.1873 8.9685 8.6774 34.7292 -4.5148 -9.5147 -0.0000 -0.0000 -43.1040 18.9974 -3.6695 -3.6231 0.0000 0.0000 0.0000 -0.0000 -0.0000 0.0000 8.8285 -3.0940 -7.6773 22.0436 0.0000 0.0000 -32.9093 0.0040 4.8507 -3.9725 0.0000 -0.0000 -33.7956 -3.9950 10.5041 21.3603 0.0000 0.0000 -4.1786 7.3907 0.3459 -12.5175 0.0000 -0.0000
 2.4579 6.7712 34.9784 -1.6478 2.0345 175.7559 -0.0095 -4.2085 1.9809 0.2115 -0.5052 0.4377 3.3660 10.3969 9.9073 2.0745 3.5950 -1.0903 5.4065 2.6700 1.0937 -0.6989 -7.4426 -5.7042 13.7740 2.5368 26.4486 31.0065 -19.1938 70.3409 -0.0000 0.0001 77.9036 -9.8136 18.4846 2.2422 -0.0000 0.0000 -0.0000 0.0000 -0.0000 0.0000 7.9203 8.0648 10.0667 33.8672 -6.6973 -6.2073 -0.0000 -0.0000 -41.5248 19.3153 -1.9678 -3.2174 -0.0000 0.0000 -0.0000 0.0000 0.0000 -0.0000 11.0337 -0.8550 -8.8500 22.8312 0.0000 0.0000 -35.2038 -0.9032 4.6571 -5.1920 0.0000 -0.0000 -36.3130 -1.5363 8.1849 28.8745 0.0000 0.0000 -1.2790 3.0670 2.1607 -12.4208 0.0000 -0.0000
 2.2379 8.3825 34.5031 -1.5155 3.8578 176.1327 0.0544 -3.3709 1.9974 0.2388 -0.5650 0.5414 3.1377 12.4631 11.2811 1.9860 3.8071 -1.2155 5.1344 2.0632 0.4786 -0.7326 -8.7640 -7.5239 13.0526 2.8850 26.9398 29.6359 -20.7465 70.3885 -0.0000 0.0001 84.0429 -11.3231 18.6837 2.7980 0.0000 -0.0000 0.0000 0.0000 -0.0000 0.0000 5.4627 7.5604 11.0253 31.6564 -9.0554 -3.6150 -0.0000 -0.0000 -39.5724 19.7813 -1.6278 -2.3442 0.0000 0.0000 -0.0000 0.0000 -0.0000 0.0000 13.4161 1.2612 -9.3065 24.0126 0.0000 0.0000 -36.5893 -1.1553 3.5216 -6.5238 0.0000 -0.0000 -38.6698 0.6154 7.5722 37.0887 0.0000 0.0000 -1.3045 0.4827 3.6149 -8.3410 0.0000 -0.0000
 2.0290 10.0111 34.0753 -1.1500 5.0688 176.1635 0.1762 -2.9492 2.0183 0.2713 -0.5314 0.6389 3.1612 13.9286 12.4213 1.9955 3.9076 -1.2274 4.4745 1.8418 0.1803 -0.7008 -9.6120 -9.0138 13.1364 3.1974 27.6523 27.3894 -20.9592 69.5332 -0.0000 0.0001 88.7945 -12.7859 18.7422 3.4834 0.0000 -0.0000 0.0000 -0.0000 0.0000 -0.0000 3.4444 7.2352 11.6776 28.2302 -10.4711 -2.0750 -0.0000 -0.0000 -37.8260 20.5868 -2.2131 -1.3025 0.0000 -0.0000 0.0000 0.0000 -0.0000 -0.0000 15.6015 2.6568 -8.7826 26.0438 0.0000 0.0000 -36.2662 -0.6280 1.7468 -9.7745 0.0000 -0.0000 -39.8267 1.7220 8.3747 44.5952 0.0000 0.0000 -5.8403 -0.4138 4.2470 -3.1378 0.0000 -0.0000
 1.8308 11.5837 33.7712 -1.0712 5.5436 176.0112 0.0907 -2.7628 2.0358 0.2305 -0.5205 0.6912 3.2138 14.4618 13.0208 1.9811 3.9122 -1.1729 3.9001 1.9062 0.1567 -0.6382 -9.9311 -9.8509 13.5234 3.2527 28.4157 25.5494 -19.9610 68.5382 -0.0000 0.0001 91.2262 -13.8849 17.7190 4.0314 0.0000 0.0000 0.0000 0.0000 -0.0000 -0.0000 2.0560 6.9807 12.1210 25.0355 -10.4159 -1.2083 -0.0000 -0.0000 -36.8005 21.2489 -2.9129 -0.4842 -0.0000 -0.0000 0.0000 0.0000 -0.0000 0.0000 16.3555 3.4506 -7.4353 29.7861 0.0000 0.0000 -33.6099 -0.1170 0.2361 -16.5741 0.0000 -0.0000 -39.8016 2.0254 9.4486 50.0653 0.0000 0.0000 -11.6924 -0.5673 3.9435 -0.6459 0.0000 -0.0000
 1.6354 13.0421 33.6576 -1.3809 5.5165 176.1244 -0.0727 -2.5934 1.9936 0.1493 -0.5865 0.6799 3.1259 14.2542 12.9557 1.8814 3.8291 -1.1320 3.5465 1.9423 0.1728 -0.4597 -9.8566 -10.1236 13.7667 2.8807 28.7031 25.1960 -18.3690 68.0932 -0.0000 0.0001 90.9674 -13.4091 15.5883 3.7181 0.0000 -0.0000 0.0000 0.0000 0.0000 0.0000 1.3737 6.8921 12.2648 23.4532 -9.2118 -0.7051 -0.0000 -0.0000 -36.3260 21.3669 -3.3733 -0.1511 0.0000 0.0000 0.0000 0.0000 0.0000 0.0000 15.1075 3.9653 -6.0319 35.7941 0.0000 0.0000 -28.0949 -0.3452 -0.0949 -24.1630 0.0000 -0.0000 -39.0578 2.1876 10.0268 53.2020 0.0000 0.0000 -15.7959 -0.8282 3.3677 -1.1235 0.0000 -0.0000
 1.4522 14.3848 33.7536 -1.7157 5.0625 176.6694 -0.0535 -2.5530 1.8683 0.1031 -0.6081 0.6508 3.0126 13.5009 12.3071 1.7535 3.6665 -1.1134 3.2611 1.7622 0.0614 -0.0971 -9.4993 -10.0523 13.9776 2.2960 28.3590 26.1762 -16.7766 68.0096 -0.0000 0.0001 88.4688 -11.0199 13.3664 2.5862 0.0000 -0.0000 -0.0000 0.0000 -0.0000 -0.0000 1.5265 7.1516 11.9353 23.4046 -7.2760 -0.7658 -0.0000 -0.0000 -36.0070 20.9638 -3.5193 -0.2621 -0.0000 0.0000 -0.0000 -0.0000 -0.0000 0.0000 12.1756 4.1865 -5.1393 43.7497 0.0000 0.0000 -20.3330 -1.2412 0.2000 -25.3861 0.0000 -0.0000 -37.5935 2.3895 9.9150 54.4086 0.0000 0.0000 -18.2957 -1.3644 3.1500 -1.9166 0.0000 -0.0000
 1.2769 15.6441 34.0373 -1.8464 4.4222 177.2576 0.0898 -2.5778 1.7071 0.0839 -0.5696 0.6137 3.0615 12.4004 11.4167 1.6787 3.4119 -1.0335 2.9589 1.3889 -0.1704 0.3568 -8.8993 -9.7466 14.5042 1.6798 27.7204 27.7634 -15.3021 67.5818 -0.0000 0.0001 84.4086 -7.8735 11.9630 1.3924 -0.0000 -0.0000 -0.0000 0.0000 0.0000 0.0000 2.5435 7.7803 11.0792 23.7949 -4.6264 -1.6730 -0.0000 -0.0000 -35.8115 20.1235 -3.3355 -0.5279 -0.0000 0.0000 -0.0000 -0.0000 0.0000 0.0000 8.0401 4.3534 -4.7727 52.4671 0.0000 0.0000 -13.6298 -3.1050 -0.8024 -15.2960 0.0000 -0.0000 -35.1406 2.5850 9.5305 53.9043 0.0000 0.0000 -20.2795 -1.7676 3.1077 -1.7410 0.0000 -0.0000
